<svg xmlns="http://www.w3.org/2000/svg" xmlns:xlink="http://www.w3.org/1999/xlink" width="400" zoomAndPan="magnify" viewBox="0 0 300 60" height="80" preserveAspectRatio="xMidYMid meet" version="1.0"><defs><g/><clipPath id="c2c17e1097"><rect x="0" width="61" y="0" height="24"/></clipPath><clipPath id="0e621b3ba0"><rect x="0" width="31" y="0" height="43"/></clipPath><clipPath id="f168590712"><rect x="0" width="57" y="0" height="48"/></clipPath><clipPath id="ed54f0dd7e"><rect x="0" width="37" y="0" height="47"/></clipPath><clipPath id="67ea2edd5d"><rect x="0" width="42" y="0" height="49"/></clipPath></defs><g transform="matrix(1, 0, 0, 1, 77, -0.000000000000001479)"><g clip-path="url(#c2c17e1097)"><g fill="#ffffff" fill-opacity="1"><g transform="translate(0.411326, 19.487194)"><g><path d="M 8.722656 0 L 8.722656 -10.570312 C 8.722656 -10.925781 8.59375 -11.226562 8.339844 -11.476562 C 8.082031 -11.726562 7.773438 -11.851562 7.417969 -11.851562 L 0.671875 -11.851562 L 0.671875 -14.367188 L 7.417969 -14.367188 C 8.136719 -14.367188 8.78125 -14.199219 9.351562 -13.863281 C 9.921875 -13.523438 10.375 -13.070312 10.710938 -12.5 C 11.050781 -11.929688 11.21875 -11.285156 11.21875 -10.570312 L 11.21875 0.140625 L 8.722656 0.140625 Z M 9.003906 0 L 8.863281 0 L 8.863281 -0.140625 L 11.078125 -0.140625 L 11.078125 0 L 10.9375 0 L 10.9375 -10.570312 C 10.9375 -11.234375 10.78125 -11.832031 10.46875 -12.359375 C 10.15625 -12.886719 9.738281 -13.308594 9.207031 -13.621094 C 8.679688 -13.933594 8.085938 -14.089844 7.417969 -14.089844 L 0.8125 -14.089844 L 0.8125 -14.230469 L 0.953125 -14.230469 L 0.953125 -11.992188 L 0.8125 -11.992188 L 0.8125 -12.132812 L 7.417969 -12.132812 C 7.851562 -12.132812 8.222656 -11.980469 8.535156 -11.675781 C 8.847656 -11.371094 9.003906 -11.003906 9.003906 -10.570312 Z M 10.9375 -11.992188 L 10.9375 -14.367188 L 19.246094 -14.367188 L 19.246094 -11.851562 L 10.9375 -11.851562 Z M 11.21875 -11.992188 L 11.078125 -11.992188 L 11.078125 -12.132812 L 19.109375 -12.132812 L 19.109375 -11.992188 L 18.96875 -11.992188 L 18.96875 -14.230469 L 19.109375 -14.230469 L 19.109375 -14.089844 L 11.078125 -14.089844 L 11.078125 -14.230469 L 11.21875 -14.230469 Z M 11.21875 -11.992188 "/></g></g></g><g fill="#ffffff" fill-opacity="1"><g transform="translate(20.32931, 19.487194)"><g><path d="M 0.671875 -7.113281 L 0.671875 -14.367188 L 3.167969 -14.367188 L 3.167969 -6.976562 L 0.671875 -6.976562 Z M 0.953125 -7.113281 L 0.8125 -7.113281 L 0.8125 -7.253906 L 3.027344 -7.253906 L 3.027344 -7.113281 L 2.890625 -7.113281 L 2.890625 -14.230469 L 3.027344 -14.230469 L 3.027344 -14.089844 L 0.8125 -14.089844 L 0.8125 -14.230469 L 0.953125 -14.230469 Z M 16.753906 0 L 16.753906 -14.367188 L 19.246094 -14.367188 L 19.246094 0.140625 L 16.753906 0.140625 Z M 17.03125 0 L 16.890625 0 L 16.890625 -0.140625 L 19.109375 -0.140625 L 19.109375 0 L 18.96875 0 L 18.96875 -14.230469 L 19.109375 -14.230469 L 19.109375 -14.089844 L 16.890625 -14.089844 L 16.890625 -14.230469 L 17.03125 -14.230469 Z M 0.671875 0 L 0.671875 -3.457031 C 0.671875 -4.171875 0.84375 -4.816406 1.179688 -5.386719 C 1.519531 -5.957031 1.976562 -6.410156 2.550781 -6.746094 C 3.128906 -7.085938 3.769531 -7.253906 4.472656 -7.253906 L 15.589844 -7.253906 L 15.589844 -4.738281 L 4.472656 -4.738281 C 4.117188 -4.738281 3.816406 -4.613281 3.566406 -4.363281 C 3.3125 -4.113281 3.1875 -3.808594 3.1875 -3.457031 L 3.1875 0.140625 L 0.671875 0.140625 Z M 0.953125 0 L 0.8125 0 L 0.8125 -0.140625 L 3.050781 -0.140625 L 3.050781 0 L 2.910156 0 L 2.910156 -3.457031 C 2.910156 -3.886719 3.0625 -4.253906 3.367188 -4.5625 C 3.671875 -4.867188 4.039062 -5.019531 4.472656 -5.019531 L 15.449219 -5.019531 L 15.449219 -4.878906 L 15.308594 -4.878906 L 15.308594 -7.113281 L 15.449219 -7.113281 L 15.449219 -6.976562 L 4.472656 -6.976562 C 3.820312 -6.976562 3.226562 -6.820312 2.691406 -6.507812 C 2.15625 -6.191406 1.734375 -5.773438 1.421875 -5.246094 C 1.109375 -4.71875 0.953125 -4.121094 0.953125 -3.457031 Z M 0.953125 0 "/></g></g></g><g fill="#ffffff" fill-opacity="1"><g transform="translate(40.247293, 19.487194)"><g><path d="M 2.910156 -11.992188 L 2.910156 -14.367188 L 19.246094 -14.367188 L 19.246094 -11.851562 L 2.910156 -11.851562 Z M 3.1875 -11.992188 L 3.050781 -11.992188 L 3.050781 -12.132812 L 19.109375 -12.132812 L 19.109375 -11.992188 L 18.96875 -11.992188 L 18.96875 -14.230469 L 19.109375 -14.230469 L 19.109375 -14.089844 L 3.050781 -14.089844 L 3.050781 -14.230469 L 3.1875 -14.230469 Z M 4.472656 0.140625 C 3.769531 0.140625 3.128906 -0.0273438 2.550781 -0.367188 C 1.976562 -0.703125 1.519531 -1.160156 1.179688 -1.738281 C 0.84375 -2.316406 0.671875 -2.957031 0.671875 -3.660156 L 0.671875 -12.132812 L 3.1875 -12.132812 L 3.1875 -3.660156 C 3.1875 -3.304688 3.316406 -3.003906 3.574219 -2.753906 C 3.832031 -2.5 4.128906 -2.375 4.472656 -2.375 L 19.246094 -2.375 L 19.246094 0.140625 Z M 4.472656 -0.140625 L 19.109375 -0.140625 L 19.109375 0 L 18.96875 0 L 18.96875 -2.234375 L 19.109375 -2.234375 L 19.109375 -2.097656 L 4.472656 -2.097656 C 4.054688 -2.097656 3.691406 -2.25 3.378906 -2.550781 C 3.066406 -2.859375 2.910156 -3.226562 2.910156 -3.660156 L 2.910156 -11.992188 L 3.050781 -11.992188 L 3.050781 -11.851562 L 0.8125 -11.851562 L 0.8125 -11.992188 L 0.953125 -11.992188 L 0.953125 -3.660156 C 0.953125 -3.007812 1.109375 -2.414062 1.421875 -1.878906 C 1.734375 -1.34375 2.160156 -0.921875 2.691406 -0.609375 C 3.226562 -0.296875 3.820312 -0.140625 4.472656 -0.140625 Z M 4.3125 -5.996094 L 4.3125 -8.371094 L 17.824219 -8.371094 L 17.824219 -5.855469 L 4.3125 -5.855469 Z M 4.589844 -5.996094 L 4.453125 -5.996094 L 4.453125 -6.136719 L 17.683594 -6.136719 L 17.683594 -5.996094 L 17.542969 -5.996094 L 17.542969 -8.234375 L 17.683594 -8.234375 L 17.683594 -8.09375 L 4.453125 -8.09375 L 4.453125 -8.234375 L 4.589844 -8.234375 Z M 4.589844 -5.996094 "/></g></g></g><g fill="#15162a" fill-opacity="1"><g transform="translate(0.411326, 19.487194)"><g><path d="M 8.859375 0 L 8.859375 -10.578125 C 8.859375 -10.960938 8.71875 -11.296875 8.4375 -11.578125 C 8.15625 -11.859375 7.816406 -12 7.421875 -12 L 0.8125 -12 L 0.8125 -14.234375 L 7.421875 -14.234375 C 8.109375 -14.234375 8.726562 -14.066406 9.28125 -13.734375 C 9.832031 -13.410156 10.269531 -12.972656 10.59375 -12.421875 C 10.914062 -11.878906 11.078125 -11.265625 11.078125 -10.578125 L 11.078125 0 Z M 11.078125 -12 L 11.078125 -14.234375 L 19.109375 -14.234375 L 19.109375 -12 Z M 11.078125 -12 "/></g></g></g><g fill="#15162a" fill-opacity="1"><g transform="translate(20.32931, 19.487194)"><g><path d="M 0.8125 -7.109375 L 0.8125 -14.234375 L 3.03125 -14.234375 L 3.03125 -7.109375 Z M 16.890625 0 L 16.890625 -14.234375 L 19.109375 -14.234375 L 19.109375 0 Z M 0.8125 0 L 0.8125 -3.453125 C 0.8125 -4.148438 0.972656 -4.769531 1.296875 -5.3125 C 1.617188 -5.863281 2.054688 -6.300781 2.609375 -6.625 C 3.171875 -6.945312 3.789062 -7.109375 4.46875 -7.109375 L 15.453125 -7.109375 L 15.453125 -4.875 L 4.46875 -4.875 C 4.070312 -4.875 3.734375 -4.734375 3.453125 -4.453125 C 3.179688 -4.179688 3.046875 -3.847656 3.046875 -3.453125 L 3.046875 0 Z M 0.8125 0 "/></g></g></g><g fill="#15162a" fill-opacity="1"><g transform="translate(40.247293, 19.487194)"><g><path d="M 3.046875 -12 L 3.046875 -14.234375 L 19.109375 -14.234375 L 19.109375 -12 Z M 4.46875 0 C 3.789062 0 3.171875 -0.160156 2.609375 -0.484375 C 2.054688 -0.804688 1.617188 -1.242188 1.296875 -1.796875 C 0.972656 -2.359375 0.8125 -2.976562 0.8125 -3.65625 L 0.8125 -12 L 3.046875 -12 L 3.046875 -3.65625 C 3.046875 -3.257812 3.1875 -2.921875 3.46875 -2.640625 C 3.757812 -2.367188 4.09375 -2.234375 4.46875 -2.234375 L 19.109375 -2.234375 L 19.109375 0 Z M 4.453125 -6 L 4.453125 -8.234375 L 17.6875 -8.234375 L 17.6875 -6 Z M 4.453125 -6 "/></g></g></g></g></g><g transform="matrix(1, 0, 0, 1, 129, 15)"><g clip-path="url(#0e621b3ba0)"><g fill="#ffffff" fill-opacity="1"><g transform="translate(0.382304, 34.698515)"><g><path d="M 4.617188 0.238281 C 3.902344 0.238281 3.296875 -0.0117188 2.796875 -0.507812 C 2.300781 -1.003906 2.050781 -1.613281 2.050781 -2.324219 L 2.050781 -25.441406 C 2.050781 -26.179688 2.300781 -26.789062 2.800781 -27.277344 C 3.296875 -27.761719 3.902344 -28.003906 4.617188 -28.003906 L 20.164062 -28.003906 C 21.574219 -28.003906 22.828125 -27.6875 23.929688 -27.054688 C 25.03125 -26.417969 25.898438 -25.550781 26.53125 -24.449219 C 27.167969 -23.347656 27.484375 -22.09375 27.484375 -20.6875 L 27.484375 -18.570312 C 27.484375 -17.808594 27.234375 -17.179688 26.738281 -16.683594 C 26.238281 -16.183594 25.609375 -15.933594 24.851562 -15.933594 L 24.78125 -15.933594 C 24.222656 -15.933594 23.746094 -15.738281 23.351562 -15.34375 C 22.960938 -14.953125 22.765625 -14.464844 22.765625 -13.882812 C 22.765625 -13.300781 22.960938 -12.8125 23.351562 -12.421875 C 23.746094 -12.027344 24.222656 -11.832031 24.78125 -11.832031 L 25.09375 -11.832031 C 25.78125 -11.832031 26.351562 -11.613281 26.804688 -11.171875 C 27.257812 -10.734375 27.484375 -10.167969 27.484375 -9.476562 L 27.484375 -2.324219 C 27.484375 -1.613281 27.242188 -1.007812 26.757812 -0.511719 C 26.269531 -0.0117188 25.65625 0.238281 24.917969 0.238281 L 21.96875 0.238281 C 21.257812 0.238281 20.648438 -0.0117188 20.152344 -0.507812 C 19.65625 -1.003906 19.40625 -1.613281 19.40625 -2.324219 L 19.40625 -8.605469 C 19.40625 -9.167969 19.210938 -9.640625 18.816406 -10.035156 C 18.421875 -10.429688 17.9375 -10.625 17.355469 -10.625 L 12.148438 -10.625 C 11.589844 -10.625 11.113281 -10.429688 10.71875 -10.035156 C 10.328125 -9.640625 10.128906 -9.167969 10.128906 -8.605469 L 10.128906 -2.324219 C 10.128906 -1.613281 9.886719 -1.007812 9.402344 -0.511719 C 8.917969 -0.0117188 8.304688 0.238281 7.566406 0.238281 Z M 4.617188 -0.238281 L 7.566406 -0.238281 C 8.171875 -0.238281 8.667969 -0.441406 9.0625 -0.84375 C 9.457031 -1.25 9.652344 -1.742188 9.652344 -2.324219 L 9.652344 -8.605469 C 9.652344 -9.296875 9.894531 -9.886719 10.382812 -10.371094 C 10.867188 -10.859375 11.457031 -11.101562 12.148438 -11.101562 L 17.355469 -11.101562 C 18.066406 -11.101562 18.667969 -10.859375 19.152344 -10.371094 C 19.640625 -9.886719 19.882812 -9.296875 19.882812 -8.605469 L 19.882812 -2.324219 C 19.882812 -1.742188 20.085938 -1.25 20.488281 -0.84375 C 20.894531 -0.441406 21.386719 -0.238281 21.96875 -0.238281 L 24.917969 -0.238281 C 25.523438 -0.238281 26.023438 -0.441406 26.414062 -0.84375 C 26.808594 -1.25 27.007812 -1.742188 27.007812 -2.324219 L 27.007812 -9.476562 C 27.007812 -10.03125 26.828125 -10.484375 26.472656 -10.832031 C 26.113281 -11.179688 25.652344 -11.355469 25.09375 -11.355469 L 24.78125 -11.355469 C 24.089844 -11.355469 23.503906 -11.597656 23.015625 -12.082031 C 22.53125 -12.570312 22.285156 -13.167969 22.285156 -13.882812 C 22.285156 -14.597656 22.53125 -15.195312 23.015625 -15.683594 C 23.503906 -16.167969 24.089844 -16.414062 24.78125 -16.414062 L 24.851562 -16.414062 C 25.480469 -16.414062 25.996094 -16.613281 26.398438 -17.019531 C 26.804688 -17.421875 27.007812 -17.941406 27.007812 -18.570312 L 27.007812 -20.6875 C 27.007812 -22.007812 26.710938 -23.183594 26.117188 -24.210938 C 25.527344 -25.238281 24.71875 -26.046875 23.691406 -26.640625 C 22.664062 -27.230469 21.488281 -27.527344 20.164062 -27.527344 L 4.617188 -27.527344 C 4.03125 -27.527344 3.539062 -27.328125 3.132812 -26.933594 C 2.730469 -26.542969 2.53125 -26.042969 2.53125 -25.441406 L 2.53125 -2.324219 C 2.53125 -1.742188 2.730469 -1.25 3.136719 -0.84375 C 3.539062 -0.441406 4.035156 -0.238281 4.617188 -0.238281 Z M 12.148438 -17.175781 L 17.355469 -17.175781 C 17.9375 -17.175781 18.421875 -17.371094 18.816406 -17.765625 C 19.210938 -18.160156 19.40625 -18.632812 19.40625 -19.191406 C 19.40625 -19.773438 19.210938 -20.261719 18.816406 -20.65625 C 18.421875 -21.046875 17.9375 -21.246094 17.355469 -21.246094 L 12.148438 -21.246094 C 11.589844 -21.246094 11.113281 -21.046875 10.71875 -20.65625 C 10.328125 -20.261719 10.128906 -19.773438 10.128906 -19.191406 C 10.128906 -18.632812 10.328125 -18.160156 10.71875 -17.765625 C 11.113281 -17.371094 11.589844 -17.175781 12.148438 -17.175781 Z M 12.148438 -16.699219 C 11.457031 -16.699219 10.867188 -16.941406 10.382812 -17.429688 C 9.894531 -17.914062 9.652344 -18.503906 9.652344 -19.191406 C 9.652344 -19.90625 9.894531 -20.507812 10.382812 -20.992188 C 10.867188 -21.480469 11.457031 -21.722656 12.148438 -21.722656 L 17.355469 -21.722656 C 18.066406 -21.722656 18.667969 -21.480469 19.152344 -20.992188 C 19.640625 -20.507812 19.882812 -19.90625 19.882812 -19.191406 C 19.882812 -18.503906 19.640625 -17.914062 19.152344 -17.429688 C 18.667969 -16.941406 18.066406 -16.699219 17.355469 -16.699219 Z M 12.148438 -16.699219 "/></g></g></g><g fill="#15162a" fill-opacity="1"><g transform="translate(0.382304, 34.698515)"><g><path d="M 4.609375 0 C 3.960938 0 3.414062 -0.222656 2.96875 -0.671875 C 2.519531 -1.128906 2.296875 -1.679688 2.296875 -2.328125 L 2.296875 -25.4375 C 2.296875 -26.101562 2.519531 -26.65625 2.96875 -27.09375 C 3.414062 -27.539062 3.960938 -27.765625 4.609375 -27.765625 L 20.15625 -27.765625 C 21.519531 -27.765625 22.734375 -27.457031 23.796875 -26.84375 C 24.867188 -26.226562 25.707031 -25.390625 26.3125 -24.328125 C 26.925781 -23.265625 27.234375 -22.050781 27.234375 -20.6875 L 27.234375 -18.5625 C 27.234375 -17.875 27.007812 -17.300781 26.5625 -16.84375 C 26.113281 -16.394531 25.539062 -16.171875 24.84375 -16.171875 L 24.78125 -16.171875 C 24.15625 -16.171875 23.617188 -15.953125 23.171875 -15.515625 C 22.734375 -15.078125 22.515625 -14.53125 22.515625 -13.875 C 22.515625 -13.226562 22.734375 -12.6875 23.171875 -12.25 C 23.617188 -11.8125 24.15625 -11.59375 24.78125 -11.59375 L 25.09375 -11.59375 C 25.71875 -11.59375 26.226562 -11.394531 26.625 -11 C 27.03125 -10.601562 27.234375 -10.09375 27.234375 -9.46875 L 27.234375 -2.328125 C 27.234375 -1.679688 27.015625 -1.128906 26.578125 -0.671875 C 26.140625 -0.222656 25.585938 0 24.921875 0 L 21.96875 0 C 21.320312 0 20.769531 -0.222656 20.3125 -0.671875 C 19.863281 -1.128906 19.640625 -1.679688 19.640625 -2.328125 L 19.640625 -8.609375 C 19.640625 -9.234375 19.421875 -9.765625 18.984375 -10.203125 C 18.546875 -10.640625 18 -10.859375 17.34375 -10.859375 L 12.140625 -10.859375 C 11.515625 -10.859375 10.984375 -10.640625 10.546875 -10.203125 C 10.109375 -9.765625 9.890625 -9.234375 9.890625 -8.609375 L 9.890625 -2.328125 C 9.890625 -1.679688 9.671875 -1.128906 9.234375 -0.671875 C 8.796875 -0.222656 8.238281 0 7.5625 0 Z M 12.140625 -16.9375 L 17.34375 -16.9375 C 18 -16.9375 18.546875 -17.15625 18.984375 -17.59375 C 19.421875 -18.03125 19.640625 -18.5625 19.640625 -19.1875 C 19.640625 -19.832031 19.421875 -20.375 18.984375 -20.8125 C 18.546875 -21.257812 18 -21.484375 17.34375 -21.484375 L 12.140625 -21.484375 C 11.515625 -21.484375 10.984375 -21.257812 10.546875 -20.8125 C 10.109375 -20.375 9.890625 -19.832031 9.890625 -19.1875 C 9.890625 -18.5625 10.109375 -18.03125 10.546875 -17.59375 C 10.984375 -17.15625 11.515625 -16.9375 12.140625 -16.9375 Z M 12.140625 -16.9375 "/></g></g></g></g></g><g transform="matrix(1, 0, 0, 1, 157, 12)"><g clip-path="url(#f168590712)"><g fill="#ffffff" fill-opacity="1"><g transform="translate(3.146569, 37.534758)"><g><path d="M 22.804688 -27.046875 L 33.691406 0.265625 L 22.375 0.265625 L 16.265625 -16.65625 L 16.515625 -16.746094 L 16.765625 -16.65625 L 13.875 -8.878906 L 13.628906 -8.96875 L 13.628906 -9.234375 L 18.78125 -9.234375 L 22.207031 0.265625 L -0.464844 0.265625 L 10.292969 -27.214844 L 22.738281 -27.214844 Z M 22.316406 -26.851562 L 22.558594 -26.949219 L 22.558594 -26.683594 L 10.472656 -26.683594 L 10.472656 -26.949219 L 10.71875 -26.851562 L 0.167969 0.0976562 L -0.078125 0 L -0.078125 -0.265625 L 21.828125 -0.265625 L 21.828125 0 L 21.578125 0.0898438 L 18.347656 -8.878906 L 18.59375 -8.96875 L 18.59375 -8.707031 L 13.246094 -8.707031 L 16.519531 -17.515625 L 22.808594 -0.0898438 L 22.558594 0 L 22.558594 -0.265625 L 33.300781 -0.265625 L 33.300781 0 L 33.054688 0.0976562 Z M 22.316406 -26.851562 "/></g></g></g><g fill="#ffffff" fill-opacity="1"><g transform="translate(40.486809, 37.534758)"><g><path d="M 0.121094 -27.214844 L 10.660156 -27.214844 L 10.660156 0.265625 L 0.121094 0.265625 Z M 0.648438 -26.683594 L 0.648438 -0.265625 L 10.128906 -0.265625 L 10.128906 -26.683594 Z M 0.648438 -26.683594 "/></g></g></g><g fill="#15162a" fill-opacity="1"><g transform="translate(3.146569, 37.534758)"><g><path d="M 22.5625 -26.953125 L 33.296875 0 L 22.5625 0 L 16.515625 -16.75 L 13.625 -8.96875 L 18.59375 -8.96875 L 21.828125 0 L -0.078125 0 L 10.46875 -26.953125 Z M 22.5625 -26.953125 "/></g></g></g><g fill="#15162a" fill-opacity="1"><g transform="translate(40.486809, 37.534758)"><g><path d="M 0.390625 0 L 0.390625 -26.953125 L 10.390625 -26.953125 L 10.390625 0 Z M 0.390625 0 "/></g></g></g></g></g><g transform="matrix(1, 0, 0, 1, 210, 11)"><g clip-path="url(#ed54f0dd7e)"><g fill="#ffffff" fill-opacity="1"><g transform="translate(0.29044, 38.336993)"><g><path d="M 9.539062 0.261719 C 8.015625 0.261719 6.628906 -0.113281 5.378906 -0.863281 C 4.132812 -1.609375 3.136719 -2.605469 2.390625 -3.851562 C 1.640625 -5.101562 1.265625 -6.488281 1.265625 -8.015625 L 1.265625 -26.976562 L 7.132812 -26.976562 L 7.132812 -8.015625 C 7.132812 -7.347656 7.367188 -6.78125 7.835938 -6.308594 C 8.308594 -5.839844 8.875 -5.605469 9.539062 -5.605469 L 33.84375 -5.605469 L 33.84375 0.261719 Z M 9.539062 -0.261719 L 33.582031 -0.261719 L 33.582031 0 L 33.320312 0 L 33.320312 -5.34375 L 33.582031 -5.34375 L 33.582031 -5.082031 L 9.539062 -5.082031 C 8.730469 -5.082031 8.039062 -5.367188 7.464844 -5.9375 C 6.894531 -6.511719 6.605469 -7.203125 6.605469 -8.015625 L 6.605469 -26.714844 L 6.867188 -26.714844 L 6.867188 -26.449219 L 1.527344 -26.449219 L 1.527344 -26.714844 L 1.789062 -26.714844 L 1.789062 -8.015625 C 1.789062 -6.585938 2.140625 -5.289062 2.839844 -4.121094 C 3.542969 -2.953125 4.476562 -2.015625 5.648438 -1.3125 C 6.816406 -0.613281 8.113281 -0.261719 9.539062 -0.261719 Z M 9.539062 -0.261719 "/></g></g></g><g fill="#15162a" fill-opacity="1"><g transform="translate(0.29044, 38.336993)"><g><path d="M 9.546875 0 C 8.066406 0 6.722656 -0.359375 5.515625 -1.078125 C 4.304688 -1.804688 3.335938 -2.773438 2.609375 -3.984375 C 1.890625 -5.191406 1.53125 -6.535156 1.53125 -8.015625 L 1.53125 -26.703125 L 6.875 -26.703125 L 6.875 -8.015625 C 6.875 -7.273438 7.132812 -6.644531 7.65625 -6.125 C 8.175781 -5.601562 8.804688 -5.34375 9.546875 -5.34375 L 33.578125 -5.34375 L 33.578125 0 Z M 9.546875 0 "/></g></g></g></g></g><g transform="matrix(1, 0, 0, 1, 89, 11)"><g clip-path="url(#67ea2edd5d)"><g fill="#ffffff" fill-opacity="1"><g transform="translate(1.499076, 40.660357)"><g><path d="M 16.785156 0 L 16.785156 -19.859375 C 16.785156 -20.566406 16.53125 -21.167969 16.019531 -21.667969 C 15.503906 -22.167969 14.894531 -22.417969 14.1875 -22.417969 L 1.34375 -22.417969 L 1.34375 -28.652344 L 14.1875 -28.652344 C 15.804688 -28.652344 17.277344 -28.253906 18.605469 -27.457031 C 19.929688 -26.660156 20.988281 -25.601562 21.78125 -24.28125 C 22.578125 -22.953125 22.976562 -21.480469 22.976562 -19.859375 L 22.976562 0.277344 L 16.785156 0.277344 Z M 17.34375 0 L 17.0625 0 L 17.0625 -0.277344 L 22.699219 -0.277344 L 22.699219 0 L 22.417969 0 L 22.417969 -19.859375 C 22.417969 -21.375 22.046875 -22.753906 21.304688 -23.992188 C 20.558594 -25.238281 19.5625 -26.230469 18.320312 -26.976562 C 17.078125 -27.722656 15.703125 -28.09375 14.1875 -28.09375 L 1.621094 -28.09375 L 1.621094 -28.371094 L 1.898438 -28.371094 L 1.898438 -22.699219 L 1.621094 -22.699219 L 1.621094 -22.976562 L 14.1875 -22.976562 C 15.046875 -22.976562 15.785156 -22.671875 16.40625 -22.066406 C 17.03125 -21.457031 17.34375 -20.722656 17.34375 -19.859375 Z M 22.417969 -22.699219 L 22.417969 -28.652344 L 38.378906 -28.652344 L 38.378906 -22.417969 L 22.417969 -22.417969 Z M 22.976562 -22.699219 L 22.699219 -22.699219 L 22.699219 -22.976562 L 38.097656 -22.976562 L 38.097656 -22.699219 L 37.820312 -22.699219 L 37.820312 -28.371094 L 38.097656 -28.371094 L 38.097656 -28.09375 L 22.699219 -28.09375 L 22.699219 -28.371094 L 22.976562 -28.371094 Z M 22.976562 -22.699219 "/></g></g></g><g fill="#15162a" fill-opacity="1"><g transform="translate(1.499076, 40.660357)"><g><path d="M 17.0625 0 L 17.0625 -19.859375 C 17.0625 -20.640625 16.773438 -21.304688 16.203125 -21.859375 C 15.640625 -22.421875 14.96875 -22.703125 14.1875 -22.703125 L 1.625 -22.703125 L 1.625 -28.375 L 14.1875 -28.375 C 15.75 -28.375 17.171875 -27.988281 18.453125 -27.21875 C 19.742188 -26.445312 20.773438 -25.421875 21.546875 -24.140625 C 22.316406 -22.859375 22.703125 -21.429688 22.703125 -19.859375 L 22.703125 0 Z M 22.703125 -22.703125 L 22.703125 -28.375 L 38.09375 -28.375 L 38.09375 -22.703125 Z M 22.703125 -22.703125 "/></g></g></g></g></g></svg>